<?xml version="1.0" standalone="no"?>
<!DOCTYPE svg PUBLIC "-//W3C//DTD SVG 20010904//EN"
 "http://www.w3.org/TR/2001/REC-SVG-20010904/DTD/svg10.dtd">
<svg version="1.0" xmlns="http://www.w3.org/2000/svg"
 width="500.000000pt" height="261.000000pt" viewBox="0 0 500.000000 261.000000"
 preserveAspectRatio="xMidYMid meet">

<g transform="translate(0.000000,261.000000) scale(0.100000,-0.100000)"
fill="#000000" stroke="none">
<path d="M70 2566 c0 -40 3 -46 32 -60 17 -9 33 -16 35 -16 2 0 3 27 1 60 l-3
60 -32 0 c-32 0 -33 -1 -33 -44z"/>
<path d="M171 2586 c27 -27 69 -43 69 -27 0 6 -5 11 -12 11 -9 0 -9 3 0 12 21
21 13 28 -34 28 l-47 0 24 -24z"/>
<path d="M1460 2601 c0 -6 -17 -11 -37 -13 -33 -3 -38 -7 -44 -36 -5 -24 -3
-35 6 -39 8 -2 11 -11 8 -19 -4 -11 7 -14 51 -14 32 0 56 -4 56 -10 0 -6 -17
-10 -40 -8 -22 1 -43 -2 -47 -6 -4 -4 11 -25 35 -47 23 -22 42 -45 42 -52 0
-18 39 -79 64 -102 13 -11 36 -49 51 -85 16 -36 32 -69 36 -73 11 -13 215 -20
236 -8 14 8 -1 10 -59 11 -43 0 -80 5 -83 11 -4 6 -5 11 -4 12 2 1 96 0 209
-4 180 -5 212 -9 260 -28 46 -19 82 -23 210 -28 85 -3 160 -9 165 -13 6 -5 66
-11 135 -15 69 -4 134 -13 145 -19 11 -7 43 -20 70 -30 28 -11 55 -23 61 -28
16 -12 23 56 24 241 0 85 2 157 4 160 3 3 6 51 8 105 l3 99 -50 1 c-46 1 -50
3 -47 24 3 21 0 23 -30 20 -25 -2 -34 -8 -36 -25 -2 -13 -7 -23 -11 -23 -4 0
-9 -25 -10 -55 -1 -30 3 -55 7 -55 5 0 6 -17 2 -39 -9 -48 7 -71 48 -71 33 0
42 14 42 62 0 17 3 29 6 26 10 -10 13 -199 3 -193 -10 7 -12 -8 -2 -18 10 -10
7 -117 -3 -127 -5 -5 -26 4 -49 20 -22 16 -50 34 -61 39 -30 13 -33 25 -26
114 3 46 1 87 -6 100 -5 12 -13 30 -16 40 -3 9 -15 17 -26 17 -11 0 -23 7 -26
15 -9 21 -24 19 -24 -4 0 -14 -5 -18 -19 -14 -18 5 -28 -3 -75 -59 -8 -9 -16
-27 -18 -40 -3 -22 -5 -23 -107 -22 -84 1 -107 5 -116 18 -8 10 -26 16 -49 16
-25 0 -36 4 -36 15 0 25 -62 28 -136 8 -38 -10 -89 -17 -114 -16 -231 16 -358
31 -387 46 -18 9 -40 18 -50 18 -62 4 75 15 184 14 94 0 133 3 133 12 0 6 22
14 48 18 40 5 50 11 61 36 15 34 34 29 25 -7 -5 -21 -3 -24 20 -24 16 0 26 -6
26 -15 0 -8 -9 -15 -20 -15 -11 0 -21 -7 -21 -15 -1 -8 -2 -20 -3 -27 -1 -6
17 -13 41 -15 34 -3 44 0 57 19 21 30 20 38 -5 38 -12 0 -19 5 -16 13 2 6 15
12 30 12 14 0 29 4 34 8 4 5 1 7 -7 5 -16 -3 -17 14 -5 70 6 26 4 32 -9 32 -9
0 -16 5 -16 11 0 6 -8 8 -17 5 -70 -20 -74 -20 -67 8 l6 26 -186 0 -186 0 -19
-31 c-17 -28 -20 -30 -29 -13 -5 11 -7 24 -5 31 3 8 -11 12 -46 11 -28 -1 -51
-3 -51 -5 0 -2 7 -18 16 -35 13 -25 14 -32 2 -39 -21 -14 -27 -11 -21 11 3 12
-1 22 -11 26 -9 3 -16 15 -16 25 0 15 -7 19 -35 19 -19 0 -35 -4 -35 -9z
m1242 -253 c-15 -15 -26 -4 -18 18 5 13 9 15 18 6 9 -9 9 -15 0 -24z m-45 -46
c0 -23 8 -56 21 -81 15 -27 18 -41 10 -39 -7 2 -26 29 -41 59 -23 46 -26 60
-17 83 14 37 29 24 27 -22z m-730 -43 c8 -8 17 -8 31 0 11 6 35 11 52 11 28 0
30 -3 28 -30 l-2 -31 -91 7 c-49 3 -92 8 -94 10 -2 2 -10 -1 -17 -7 -9 -7 -18
-7 -31 0 -16 9 -15 10 7 11 14 0 31 9 38 20 13 22 61 27 79 9z m220 -4 c5 -14
7 -14 23 0 20 18 76 17 73 -1 -1 -7 14 -12 40 -12 59 -1 127 -13 127 -22 0 -4
-57 -6 -127 -3 -71 3 -152 5 -180 4 -57 -2 -62 2 -36 31 20 22 71 24 80 3z
m425 -50 c0 -5 -5 -11 -11 -13 -6 -2 -11 4 -11 13 0 9 5 15 11 13 6 -2 11 -8
11 -13z m-473 -25 c17 -9 -130 -26 -153 -17 -8 3 -53 7 -100 8 -102 2 -136 8
-136 22 0 12 366 0 389 -13z m440 -8 c24 -4 46 -13 49 -21 4 -11 -11 -13 -89
-7 -171 12 -215 18 -194 27 25 9 174 10 234 1z m201 -8 c0 -17 -22 -14 -28 4
-2 7 3 12 12 12 9 0 16 -7 16 -16z m-165 -72 c2 -7 -2 -15 -11 -19 -17 -6
-248 4 -301 13 -73 13 -24 20 137 20 129 -1 171 -4 175 -14z"/>
<path d="M2365 2588 c-3 -13 -7 -33 -8 -45 0 -13 -6 -23 -12 -23 -7 0 -10 12
-7 30 6 44 -13 37 -28 -10 -7 -22 -19 -45 -27 -52 -11 -9 -12 -6 -3 16 12 33
13 46 2 46 -4 0 -14 -15 -20 -34 -10 -27 -17 -33 -33 -29 -11 3 -16 9 -11 12
6 3 14 20 17 36 7 27 6 28 -8 15 -21 -20 -33 -70 -17 -70 7 0 9 -8 5 -20 -6
-19 -2 -20 70 -20 48 0 74 4 70 10 -3 5 1 20 9 32 9 12 16 31 16 41 0 10 7 25
15 33 8 9 15 24 15 35 0 28 -38 25 -45 -3z m-15 -88 c0 -5 -5 -10 -11 -10 -5
0 -7 5 -4 10 3 6 8 10 11 10 2 0 4 -4 4 -10z"/>
<path d="M2676 2585 c-9 -14 -27 -27 -40 -31 -20 -5 -24 -12 -23 -41 1 -34 2
-35 15 -14 8 11 22 21 32 21 11 0 21 13 29 39 6 22 19 42 29 44 13 4 12 5 -4
6 -13 1 -28 -9 -38 -24z"/>
<path d="M3465 2495 c-6 -97 -10 -115 -24 -115 -14 0 -14 -2 -1 -10 23 -15
130 -13 135 3 2 6 6 57 9 111 4 55 9 102 12 105 3 3 60 9 127 12 117 5 114 6
-65 7 l-186 2 -7 -115z"/>
<path d="M4023 2603 c9 -2 25 -2 35 0 9 3 1 5 -18 5 -19 0 -27 -2 -17 -5z"/>
<path d="M4184 2599 c-9 -16 20 -20 121 -17 61 2 100 7 102 14 5 14 -214 17
-223 3z"/>
<path d="M4510 2587 c0 -13 7 -47 16 -76 15 -51 15 -54 -5 -67 -15 -11 -20
-25 -19 -52 1 -45 10 -52 66 -52 35 0 42 3 42 20 0 28 33 41 111 43 51 2 70 6
73 17 3 12 4 12 5 -1 1 -13 13 -18 49 -21 59 -6 72 4 52 40 -15 25 -22 27
-130 40 -63 7 -129 10 -147 8 -28 -4 -32 -2 -37 27 -3 18 -7 37 -8 42 -2 6 36
12 92 15 80 4 95 8 98 23 3 15 -8 17 -127 17 -130 0 -131 0 -131 -23z m220
-147 c0 -5 -2 -10 -4 -10 -3 0 -8 5 -11 10 -3 6 -1 10 4 10 6 0 11 -4 11 -10z"/>
<path d="M980 2590 c0 -5 5 -10 11 -10 5 0 7 5 4 10 -3 6 -8 10 -11 10 -2 0
-4 -4 -4 -10z"/>
<path d="M1035 2586 c-31 -33 -28 -38 16 -31 24 4 48 11 53 15 5 5 16 6 25 3
14 -4 14 -3 1 5 -25 15 -84 21 -95 8z"/>
<path d="M2276 2593 c-11 -11 -6 -23 9 -23 8 0 15 4 15 9 0 13 -16 22 -24 14z"/>
<path d="M872 2555 c0 -16 2 -22 5 -12 2 9 2 23 0 30 -3 6 -5 -1 -5 -18z"/>
<path d="M950 2522 c0 -5 6 -17 14 -28 14 -18 15 -18 22 0 4 11 2 21 -7 27
-18 11 -29 11 -29 1z"/>
<path d="M1160 2515 c7 -8 16 -15 21 -15 5 0 6 7 3 15 -4 8 -13 15 -21 15 -13
0 -13 -3 -3 -15z"/>
<path d="M900 2515 c0 -3 9 -15 20 -27 15 -16 20 -18 20 -7 0 8 -5 20 -12 27
-12 12 -28 16 -28 7z"/>
<path d="M1049 2479 c17 -27 18 -36 7 -68 -8 -21 -23 -41 -39 -49 -15 -7 -27
-17 -27 -23 0 -5 -5 -9 -10 -9 -7 0 -7 8 1 23 9 16 2 13 -26 -13 l-38 -35 6
38 c5 33 4 37 -8 27 -12 -10 -15 -9 -15 4 0 9 5 16 10 16 16 0 12 60 -5 66 -8
4 -13 10 -10 14 3 4 -2 14 -11 21 -13 10 -17 10 -24 -1 -5 -8 -6 -18 -3 -22 2
-5 -1 -15 -7 -23 -6 -8 -9 -19 -5 -25 4 -6 -3 -27 -14 -46 -24 -41 -26 -48 -8
-38 10 6 10 4 0 -7 -24 -25 -13 -30 17 -8 36 27 49 19 26 -16 -15 -23 -15 -25
0 -25 12 0 14 -3 6 -12 -5 -7 -8 -25 -7 -40 2 -15 -1 -30 -6 -33 -15 -10 -10
-28 6 -22 11 5 12 1 5 -19 -10 -27 -8 -29 42 -37 22 -3 33 2 53 29 22 29 24
35 10 40 -14 6 -14 8 2 21 17 14 17 14 -2 9 -18 -5 -18 -5 -3 6 9 7 25 19 35
26 16 11 13 12 -17 6 -19 -3 -43 -8 -52 -10 -14 -4 -17 0 -16 20 2 18 8 26 21
26 47 0 102 48 131 116 20 46 13 74 -24 94 -20 11 -20 11 -1 -21z m-152 -345
c-3 -3 -12 -4 -19 -1 -8 3 -5 6 6 6 11 1 17 -2 13 -5z"/>
<path d="M4160 2501 c0 -6 5 -13 10 -16 6 -3 10 1 10 9 0 9 -4 16 -10 16 -5 0
-10 -4 -10 -9z"/>
<path d="M2806 2472 c-3 -6 -2 -20 2 -33 l9 -23 6 25 c7 25 -6 48 -17 31z"/>
<path d="M3363 2466 c-27 -12 -31 -51 -7 -60 32 -12 41 -6 40 28 -2 42 -5 45
-33 32z"/>
<path d="M1258 2443 c-32 -16 -36 -29 -10 -37 31 -9 65 -1 76 17 8 14 8 20 -4
27 -19 12 -29 11 -62 -7z m42 -13 c12 -8 9 -10 -13 -10 -16 0 -26 4 -22 10 8
12 16 12 35 0z"/>
<path d="M4342 2371 c4 -13 18 -16 19 -4 0 4 -5 9 -11 12 -7 2 -11 -2 -8 -8z"/>
<path d="M4890 2355 c0 -8 5 -15 10 -15 6 0 10 7 10 15 0 8 -4 15 -10 15 -5 0
-10 -7 -10 -15z"/>
<path d="M4970 2360 c-12 -8 -11 -10 8 -10 12 0 22 5 22 10 0 13 -11 13 -30 0z"/>
<path d="M1285 2319 c-12 -13 -14 -19 -5 -13 8 4 22 7 32 6 9 -2 20 3 24 9 5
9 2 10 -9 6 -9 -3 -17 -1 -19 4 -2 6 -12 0 -23 -12z"/>
<path d="M1390 2299 c0 -5 5 -7 10 -4 6 3 10 8 10 11 0 2 -4 4 -10 4 -5 0 -10
-5 -10 -11z"/>
<path d="M1197 2293 c-4 -3 -7 -12 -7 -20 0 -11 5 -11 20 -3 11 6 20 15 20 20
0 11 -23 13 -33 3z"/>
<path d="M2896 2244 c-5 -13 -9 -14 -21 -4 -9 7 -19 10 -23 6 -4 -4 7 -19 23
-32 28 -23 47 -27 46 -11 -1 4 -1 18 -1 32 0 28 -15 33 -24 9z"/>
<path d="M3248 2183 c-5 -84 6 -121 15 -52 3 23 10 45 15 48 17 11 24 63 10
72 -29 19 -36 8 -40 -68z"/>
<path d="M3333 2206 c4 -10 7 -21 7 -26 0 -14 41 -23 90 -21 25 1 70 -3 100
-9 44 -9 194 -25 302 -33 9 -1 14 -5 12 -9 -3 -4 -1 -8 5 -8 6 0 8 -7 4 -16
-5 -13 -2 -15 18 -9 13 4 29 14 36 22 9 12 16 13 26 5 7 -6 32 -14 55 -18 37
-6 47 -3 68 17 24 22 26 23 22 4 -2 -14 3 -21 19 -23 12 -2 41 -23 65 -48 23
-24 51 -44 61 -44 18 0 106 -54 118 -73 4 -5 11 -7 16 -4 6 4 16 -5 23 -18 15
-29 32 -33 28 -7 -2 11 5 18 20 20 14 2 27 14 33 28 5 14 14 22 19 19 17 -11
49 5 43 20 -3 10 5 18 23 25 38 15 50 -1 28 -35 -15 -23 -15 -28 -3 -36 31
-19 74 -3 63 24 -4 13 -1 17 15 17 12 0 21 5 21 10 0 7 6 7 20 0 20 -11 66 -4
76 11 10 17 -28 59 -55 60 -46 2 47 17 129 21 84 3 87 -1 53 -67 -10 -18 -17
-63 -19 -115 -1 -47 0 -79 3 -72 3 8 26 12 64 12 l59 0 0 68 c0 37 -5 84 -11
106 -8 27 -8 41 0 49 6 6 11 41 11 77 l0 67 -307 6 c-170 4 -546 10 -837 14
-501 6 -529 5 -523 -11z m1125 -158 c-9 -13 -24 -24 -36 -26 -24 -4 -32 -29
-26 -80 l4 -37 -22 47 c-12 26 -30 50 -40 54 -34 10 -21 34 20 34 20 1 48 7
62 15 40 23 56 20 38 -7z m202 -44 c0 -14 -21 -19 -33 -7 -9 9 13 34 24 27 5
-3 9 -12 9 -20z"/>
<path d="M855 2067 c-15 -12 -17 -21 -11 -58 4 -24 11 -69 15 -99 7 -58 35
-120 71 -157 11 -13 18 -23 15 -23 -4 0 3 -13 15 -30 26 -37 44 -39 38 -5 -7
35 10 31 30 -7 17 -34 92 -111 99 -104 11 10 -40 147 -67 181 -17 21 -30 41
-30 44 0 4 12 12 28 18 l27 11 -27 1 c-16 1 -28 6 -28 12 0 7 9 9 23 6 23 -6
62 15 50 26 -3 4 -27 8 -52 8 -91 3 -101 8 -127 74 -16 37 -23 71 -20 88 4 21
2 27 -12 27 -10 0 -26 -6 -37 -13z m135 -201 c0 -11 -19 -15 -25 -6 -3 5 1 10
9 10 9 0 16 -2 16 -4z"/>
<path d="M1215 2050 c-19 -7 -65 -61 -65 -76 0 -3 7 -3 16 0 11 4 15 2 11 -7
-3 -8 4 -22 14 -31 17 -14 24 -15 47 -4 15 7 28 23 30 36 2 12 10 22 18 22 8
0 14 5 14 10 0 19 -26 21 -68 7 -48 -17 -54 -7 -16 28 29 27 29 28 -1 15z m36
-90 c6 0 7 -4 4 -10 -10 -16 -45 -12 -45 6 0 11 5 14 16 10 9 -3 20 -6 25 -6z"/>
<path d="M3848 2053 c6 -2 18 -2 25 0 6 3 1 5 -13 5 -14 0 -19 -2 -12 -5z"/>
<path d="M2694 1941 c3 -5 23 -12 43 -16 21 -3 89 -24 152 -46 63 -21 118 -39
123 -39 4 0 -6 13 -24 29 -25 22 -36 26 -49 18 -13 -8 -33 -2 -87 26 -52 27
-84 37 -117 37 -25 0 -44 -4 -41 -9z"/>
<path d="M4199 1878 c0 -2 -2 -30 -4 -63 -4 -64 -5 -67 20 43 3 12 1 22 -5 22
-5 0 -10 -1 -11 -2z"/>
<path d="M3804 1856 c-25 -19 -8 -36 26 -25 16 4 19 7 8 8 -21 1 -24 17 -5 24
6 3 7 6 1 6 -5 1 -19 -5 -30 -13z"/>
<path d="M3042 1851 c2 -7 7 -12 11 -12 12 1 9 15 -3 20 -7 2 -11 -2 -8 -8z"/>
<path d="M1970 1763 c1 -13 33 -48 63 -68 21 -13 31 -15 39 -7 9 9 7 16 -8 26
-36 27 -94 57 -94 49z"/>
<path d="M4851 1744 c0 -11 3 -14 6 -6 3 7 2 16 -1 19 -3 4 -6 -2 -5 -13z"/>
<path d="M588 1725 c-4 -4 -75 -6 -158 -6 l-152 2 6 -48 c3 -26 2 -63 -2 -82
-7 -32 -11 -36 -77 -54 -39 -10 -72 -21 -74 -23 -3 -2 4 -12 15 -22 21 -20
134 -30 134 -12 0 5 -8 7 -17 4 -10 -2 -8 1 5 7 13 7 21 18 18 26 -3 7 4 23
17 36 19 19 22 20 25 4 2 -9 10 -17 18 -17 8 0 14 -7 14 -15 0 -12 4 -13 19
-5 11 5 27 7 35 4 9 -3 16 -2 16 4 0 23 -13 42 -29 42 -22 1 25 37 59 45 78
19 163 49 175 62 22 21 18 33 -9 33 -13 0 -26 5 -28 11 -2 5 -6 7 -10 4z"/>
<path d="M1310 1695 c-30 -12 -60 -21 -66 -18 -13 5 -30 -15 -21 -24 3 -3 28
-7 55 -10 47 -4 51 -3 76 30 42 55 38 57 -44 22z"/>
<path d="M1651 1684 c-28 -28 -68 -31 -87 -6 -18 24 -44 7 -71 -51 -25 -51
-49 -69 -100 -70 -26 -1 -32 -5 -28 -16 3 -9 -4 -5 -15 8 -26 30 -25 39 5 53
34 15 22 29 -16 18 -17 -5 -34 -9 -38 -8 -29 3 -42 -4 -36 -21 3 -10 -1 -24
-10 -31 -8 -7 -15 -18 -15 -24 0 -6 -9 -22 -19 -36 -19 -24 -19 -24 -7 30 15
66 13 76 -25 95 -31 17 -29 18 -33 -27 -1 -7 5 -12 12 -10 6 1 12 -2 12 -8 0
-5 -7 -10 -15 -10 -11 0 -15 -11 -15 -42 0 -38 -1 -40 -14 -23 -12 17 -14 13
-21 -43 -4 -34 -11 -65 -16 -68 -5 -3 -9 -17 -9 -32 -1 -25 -2 -25 -14 -9 -18
23 -23 22 -30 -10 -5 -17 -3 -29 6 -34 10 -7 10 -9 1 -9 -7 0 -13 -9 -13 -20
0 -25 -16 -26 -29 -2 -10 16 -10 15 -10 -3 1 -26 13 -57 22 -56 21 2 25 -1 20
-20 l-6 -22 29 21 c32 24 84 21 64 -3 -14 -17 2 -28 26 -18 12 4 15 3 10 -5
-4 -7 -2 -12 3 -12 6 0 11 6 11 13 0 6 4 18 9 26 8 12 12 13 26 1 22 -18 56 1
74 43 26 58 58 98 124 153 36 30 68 54 72 54 4 0 40 16 80 36 91 45 138 51
219 30 69 -19 107 -18 114 2 2 7 -6 12 -22 12 -48 0 -94 27 -122 72 -15 24
-28 45 -30 47 -2 2 -21 -11 -42 -28 -50 -39 -57 -39 -37 -1 9 17 20 28 25 25
6 -4 10 3 10 14 0 10 3 26 6 35 9 23 -7 18 -35 -10z m-117 -119 c25 -19 16
-19 -20 0 -16 8 -22 15 -14 15 8 -1 24 -7 34 -15z m16 -29 c0 -2 -14 -9 -31
-15 -27 -9 -30 -9 -19 4 11 13 50 22 50 11z m-112 -41 c-2 -26 -58 -89 -58
-66 0 19 39 91 50 91 5 0 9 -11 8 -25z m-140 -76 c17 -7 22 -16 20 -32 -2 -12
-10 -22 -18 -22 -9 0 -30 -10 -47 -23 -17 -12 -34 -22 -38 -22 -4 0 -13 -7
-20 -16 -6 -9 -17 -15 -24 -13 -7 3 5 21 29 44 36 35 40 44 35 73 -7 37 -6 37
63 11z m-73 -29 c3 -5 1 -10 -4 -10 -6 0 -11 5 -11 10 0 6 2 10 4 10 3 0 8 -4
11 -10z m-39 -41 c7 -12 -12 -29 -33 -29 -28 0 -11 36 19 39 4 1 10 -4 14 -10z
m-71 -29 c3 -5 2 -10 -4 -10 -5 0 -13 5 -16 10 -3 6 -2 10 4 10 5 0 13 -4 16
-10z m99 -60 c4 -5 -3 -16 -18 -25 -24 -16 -27 -16 -54 4 -18 12 -38 18 -53
15 -21 -5 -22 -4 -6 6 10 6 25 9 33 6 8 -3 14 -1 14 4 0 10 70 1 84 -10z"/>
<path d="M1241 1417 c2 -1 12 -9 22 -16 15 -12 17 -12 11 3 -3 9 -13 16 -22
16 -8 0 -13 -1 -11 -3z"/>
<path d="M2273 1691 c-28 -4 -55 -9 -58 -13 -14 -14 64 -20 98 -7 30 11 48 9
144 -14 156 -38 197 -43 223 -24 20 14 17 15 -42 15 -35 1 -79 6 -98 12 -47
14 -181 40 -200 39 -8 -1 -38 -5 -67 -8z"/>
<path d="M4180 1695 c0 -15 18 -40 24 -34 3 3 -1 14 -9 25 -8 10 -14 15 -15 9z"/>
<path d="M4844 1687 c-5 -15 -30 -17 -210 -17 -129 0 -204 4 -204 10 0 6 -5
10 -11 10 -12 0 -7 -84 7 -127 5 -15 4 -16 -5 -3 -9 11 -10 6 -5 -25 3 -22 1
-74 -5 -115 -8 -57 -7 -78 2 -87 7 -6 54 -19 106 -28 52 -9 106 -22 120 -29
14 -8 53 -19 86 -27 33 -7 69 -18 80 -26 11 -7 29 -13 42 -13 12 0 25 -5 28
-10 4 -6 21 -8 41 -4 26 5 35 2 40 -10 3 -9 15 -16 25 -16 18 0 19 11 19 224
l0 223 -62 28 c-35 15 -69 34 -75 43 -11 13 -13 13 -19 -1z"/>
<path d="M1170 1666 c0 -17 47 -49 61 -40 6 3 -4 16 -22 30 -38 28 -39 28 -39
10z"/>
<path d="M3864 1646 c-8 -22 13 -54 38 -58 17 -2 22 -9 20 -23 -3 -19 -2 -19
19 2 l23 23 -34 35 c-36 37 -57 44 -66 21z"/>
<path d="M4204 1616 c0 -18 -13 -54 -28 -80 -26 -45 -30 -48 -60 -41 -38 8
-93 8 -114 0 -13 -5 -13 -8 3 -25 9 -10 14 -23 11 -29 -8 -12 22 -43 35 -36
16 11 10 -7 -15 -40 -28 -37 -73 -60 -133 -69 -36 -5 -41 -4 -37 12 3 12 -14
29 -62 60 -36 24 -68 41 -71 38 -6 -6 68 -96 79 -96 4 0 8 -4 8 -10 0 -17 -30
-11 -52 10 -31 29 -41 25 -23 -10 12 -23 23 -30 48 -31 30 -1 30 -2 7 -8 -19
-5 -26 -14 -28 -39 -2 -18 1 -32 7 -32 6 0 11 6 11 13 1 7 6 5 14 -6 8 -10 20
-15 29 -11 11 4 18 -2 22 -19 7 -25 45 -45 45 -24 0 7 -6 38 -14 69 l-13 57
28 -2 c29 -2 29 -3 29 -64 0 -67 14 -84 26 -31 16 75 57 126 47 61 -3 -28 -3
-28 7 -4 26 60 57 59 40 0 -9 -32 3 -39 19 -11 6 9 11 11 11 5 0 -25 18 -13
23 16 10 48 67 52 67 5 0 -13 5 -24 11 -24 5 0 9 8 8 18 -3 37 1 63 11 57 6
-3 10 -22 10 -41 0 -36 8 -42 28 -22 7 7 12 8 12 2 0 -5 5 -2 11 6 8 11 9 6 5
-20 -5 -33 -5 -34 9 -16 19 26 22 237 3 234 -8 -2 -15 17 -19 51 -15 111 -55
205 -55 127z m-74 -153 c2 -2 -2 -8 -9 -13 -13 -8 -41 9 -41 25 0 6 40 -3 50
-12z m-80 -33 c0 -5 -4 -10 -10 -10 -5 0 -10 5 -10 10 0 6 5 10 10 10 6 0 10
-4 10 -10z"/>
<path d="M3960 1635 c0 -14 32 -66 37 -61 8 7 -17 66 -28 66 -5 0 -9 -2 -9 -5z"/>
<path d="M3550 1610 c-18 -14 -25 -28 -25 -57 -1 -21 2 -42 6 -48 4 -5 -4 -50
-18 -100 -41 -151 -43 -162 -47 -246 -3 -78 -2 -80 18 -75 12 3 24 6 28 6 3 0
14 23 24 52 15 47 18 50 30 33 19 -26 17 -3 -2 39 -22 45 -15 60 35 74 36 11
42 11 61 -8 11 -11 20 -22 20 -25 0 -3 0 -8 0 -12 0 -4 5 -2 12 5 10 10 7 16
-10 28 -54 38 -96 190 -94 337 1 22 -7 21 -38 -3z m-40 -460 c0 -5 -2 -10 -4
-10 -3 0 -8 5 -11 10 -3 6 -1 10 4 10 6 0 11 -4 11 -10z"/>
<path d="M2540 1605 c0 -8 8 -11 20 -8 11 3 20 7 20 8 0 1 -9 5 -20 8 -12 3
-20 0 -20 -8z"/>
<path d="M3203 1598 c-4 -8 -38 -28 -76 -46 -37 -17 -91 -46 -120 -65 -28 -18
-69 -42 -90 -53 -21 -10 -41 -22 -44 -27 -6 -10 58 20 137 65 36 20 93 51 126
68 61 30 92 55 81 66 -3 3 -9 -1 -14 -8z"/>
<path d="M4401 1594 c0 -11 3 -14 6 -6 3 7 2 16 -1 19 -3 4 -6 -2 -5 -13z"/>
<path d="M2462 1569 c-48 -6 -162 -62 -162 -80 0 -3 -12 -4 -26 -1 -19 3 -25
1 -20 -7 4 -6 12 -9 17 -5 6 3 3 -11 -6 -33 -47 -108 -48 -175 -2 -264 26 -52
43 -71 91 -103 51 -34 67 -40 131 -44 57 -3 81 0 116 15 101 45 160 130 167
243 3 44 10 69 21 78 14 12 14 12 -4 7 -17 -4 -23 2 -33 27 -27 75 -114 148
-197 165 -22 5 -64 6 -93 2z m120 -226 c37 -20 65 -40 62 -44 -5 -8 -219 -129
-228 -129 -3 0 -6 61 -6 136 l0 136 53 -31 c28 -17 82 -48 119 -68z"/>
<path d="M641 1534 c0 -11 3 -14 6 -6 3 7 2 16 -1 19 -3 4 -6 -2 -5 -13z"/>
<path d="M597 1480 c-3 -12 0 -20 7 -20 6 0 12 9 12 20 0 11 -3 20 -7 20 -4 0
-9 -9 -12 -20z"/>
<path d="M197 1450 c6 -7 20 -17 31 -24 32 -18 146 -99 160 -113 8 -7 28 -21
44 -29 25 -13 28 -18 17 -26 -11 -8 -10 -9 3 -4 9 3 38 -7 64 -21 36 -20 65
-28 126 -31 l78 -5 -11 32 c-6 18 -9 35 -6 38 3 3 -1 23 -10 45 -12 30 -13 45
-5 63 13 29 7 35 -37 35 -30 0 -182 17 -421 47 -36 4 -43 3 -33 -7z"/>
<path d="M1916 1396 c4 -11 54 -41 54 -33 0 2 -13 13 -30 25 -17 13 -27 17
-24 8z"/>
<path d="M3113 1365 c0 -22 2 -30 4 -17 2 12 2 30 0 40 -3 9 -5 -1 -4 -23z"/>
<path d="M3880 1380 c0 -13 18 -22 24 -11 3 5 -1 11 -9 15 -8 3 -15 1 -15 -4z"/>
<path d="M1997 1360 c10 -10 90 -24 81 -15 -4 4 -26 11 -48 15 -23 4 -38 4
-33 0z"/>
<path d="M4408 1302 c-20 -9 -76 -112 -70 -131 3 -8 0 -11 -7 -7 -6 4 -11 3
-11 -3 0 -5 -3 -16 -6 -25 -4 -11 -1 -16 10 -16 9 0 16 5 16 10 0 6 15 10 33
9 l32 0 -40 -15 c-22 -8 -46 -16 -54 -19 -10 -4 -11 -8 -1 -20 10 -12 17 -13
45 -1 43 18 181 49 196 44 6 -2 -41 -17 -105 -33 -64 -16 -116 -32 -116 -35 0
-3 4 -11 9 -19 7 -11 21 -9 82 9 41 12 88 28 104 35 42 20 121 38 137 32 7 -3
4 -6 -8 -6 -12 -1 -56 -17 -99 -36 -43 -20 -111 -43 -151 -52 -41 -9 -74 -19
-74 -23 0 -3 17 -14 39 -23 21 -9 46 -26 56 -37 17 -19 17 -19 -36 -14 -30 4
-69 15 -86 25 l-33 18 0 -24 c0 -13 -4 -27 -10 -30 -5 -3 -10 -14 -10 -23 1
-16 2 -16 14 1 7 9 17 17 21 17 5 0 0 -9 -10 -20 -10 -11 -24 -20 -32 -20 -8
0 -11 -5 -7 -11 3 -6 19 -9 35 -7 15 3 26 2 24 -2 -2 -3 23 -19 56 -34 73 -33
101 -61 134 -130 l25 -53 40 10 c22 6 40 15 40 19 0 15 -44 27 -52 14 -5 -7
-8 -4 -8 8 0 16 6 18 40 13 24 -3 40 -1 40 5 0 6 9 8 20 5 11 -3 35 -1 54 3
26 6 39 4 47 -6 6 -8 20 -14 30 -14 11 0 19 -4 19 -10 0 -5 13 -10 29 -10 17
0 32 -4 35 -9 16 -26 136 -15 136 12 0 23 -22 36 -54 31 -31 -4 -31 -4 -6 8
56 29 80 51 80 74 0 21 -5 24 -38 24 -43 0 -142 -24 -189 -45 -17 -8 -37 -15
-45 -15 -7 0 10 11 38 24 59 27 138 46 194 46 38 0 40 2 40 30 0 21 -5 30 -16
30 -8 0 -13 4 -9 9 11 19 -15 21 -77 6 -90 -21 -113 -18 -43 6 39 14 75 19
103 16 l42 -5 0 59 c0 65 7 59 -81 64 -46 3 -57 21 -13 23 20 1 39 4 41 6 3 3
16 1 29 -4 23 -9 24 -8 24 40 l0 49 -56 -4 c-60 -4 -86 -15 -38 -16 l29 0 -25
-10 c-24 -10 -167 -6 -177 5 -3 3 2 8 11 12 26 10 -27 34 -76 34 -21 0 -37 4
-34 9 10 15 -21 20 -75 14 -38 -5 -50 -3 -45 5 4 7 18 12 32 12 23 0 24 1 9
16 -10 11 -25 14 -43 11 -36 -7 -64 8 -33 18 11 3 25 3 31 0 6 -3 17 1 26 9
14 15 13 16 -6 16 -12 0 -29 4 -38 9 -28 14 -66 20 -84 13z m328 -229 c-32
-17 -198 -63 -224 -62 -9 0 12 11 48 25 106 41 143 53 175 53 l30 0 -29 -16z
m79 -15 c-43 -15 -54 -26 -48 -48 4 -13 0 -20 -9 -20 -9 0 -14 10 -13 27 0 20
8 30 30 39 17 7 39 13 50 13 14 0 11 -4 -10 -11z m35 -28 c0 -5 -7 -7 -15 -4
-8 4 -15 8 -15 10 0 2 7 4 15 4 8 0 15 -4 15 -10z m-151 -14 c-7 -7 -89 -25
-89 -20 0 8 44 23 69 23 13 1 22 -1 20 -3z m19 -43 c-10 -2 -28 -2 -40 0 -13
2 -5 4 17 4 22 1 32 -1 23 -4z m-148 -33 c-8 -5 -22 -9 -30 -9 -10 0 -8 3 5 9
27 12 43 12 25 0z m-53 -6 c-3 -3 -12 -4 -19 -1 -8 3 -5 6 6 6 11 1 17 -2 13
-5z m146 -11 c-7 -2 -19 -2 -25 0 -7 3 -2 5 12 5 14 0 19 -2 13 -5z m52 -43
c-16 -4 -39 -8 -50 -8 l-20 -1 20 9 c11 5 34 8 50 8 l30 0 -30 -8z m-295 -4
c0 -2 -7 -7 -16 -10 -8 -3 -12 -2 -9 4 6 10 25 14 25 6z m395 -25 c-6 -4 -23
-11 -40 -14 l-30 -6 30 14 c35 16 54 19 40 6z m-105 -45 c-8 -8 -28 -18 -45
-21 -26 -5 -25 -4 10 14 49 24 53 25 35 7z m-218 -13 c-6 -2 -9 -10 -6 -15 4
-7 2 -8 -5 -4 -13 9 -5 26 12 25 9 0 8 -2 -1 -6z m128 -23 c-8 -5 -35 -9 -60
-8 l-45 1 45 7 c73 11 78 11 60 0z m315 0 c-3 -5 -14 -10 -24 -10 -9 0 -26 -7
-37 -15 -22 -17 -43 -20 -27 -4 6 6 28 17 49 24 48 17 46 17 39 5z m-228 -26
c-3 -3 -12 -4 -19 -1 -8 3 -5 6 6 6 11 1 17 -2 13 -5z m-60 -18 c0 -11 -5 -13
-19 -5 -10 5 -18 12 -18 14 0 3 8 5 18 5 10 0 19 -7 19 -14z"/>
<path d="M3106 1279 c-4 -9 -3 -43 3 -75 5 -33 13 -113 17 -180 6 -109 4 -125
-14 -167 -15 -34 -27 -47 -42 -47 -34 0 -87 27 -119 59 -17 17 -34 31 -39 31
-10 0 -22 47 -22 86 0 38 -25 28 -46 -18 -28 -63 -75 -103 -132 -113 -36 -6
-36 0 -3 39 15 18 15 19 -15 13 -34 -7 -62 16 -56 45 2 13 -1 16 -12 12 -9 -3
-16 -13 -16 -20 0 -26 148 -273 187 -312 7 -8 24 -28 38 -46 14 -19 50 -43 87
-60 35 -16 95 -43 133 -60 39 -18 99 -41 135 -50 140 -37 256 -118 265 -185 2
-23 17 -45 44 -70 42 -38 53 -71 26 -71 -8 0 -15 -4 -15 -10 0 -24 32 -7 55
29 37 56 100 65 133 19 10 -14 18 -16 32 -8 10 5 29 10 42 11 17 1 15 3 -12
11 -19 5 -37 14 -40 18 -3 5 -19 11 -35 14 -16 3 -31 10 -33 16 -2 5 -12 10
-23 10 -10 0 -19 3 -19 8 -1 4 -30 27 -67 52 -36 25 -85 63 -109 85 -70 64
-102 86 -142 97 -49 13 -62 25 -62 55 0 14 -6 51 -14 82 -8 31 -17 101 -20
157 -3 55 -10 113 -16 129 -20 52 -38 157 -50 285 -13 140 -15 152 -24 129z"/>
<path d="M3596 1272 c-3 -6 7 -20 23 -31 23 -17 31 -18 39 -8 6 7 8 18 4 24
-10 16 -59 27 -66 15z"/>
<path d="M3700 1240 c0 -6 7 -10 15 -10 8 0 15 -8 15 -17 1 -17 1 -17 11 0 6
10 8 21 5 25 -11 11 -46 12 -46 2z"/>
<path d="M755 1210 c3 -5 8 -10 11 -10 2 0 4 5 4 10 0 6 -5 10 -11 10 -5 0 -7
-4 -4 -10z"/>
<path d="M4120 1158 c0 -16 5 -28 10 -28 13 0 13 20 0 40 -8 12 -10 9 -10 -12z"/>
<path d="M1180 1108 c-18 -35 -35 -65 -39 -68 -3 -3 -12 -16 -20 -30 -10 -20
-11 -22 0 -12 36 34 38 0 3 -52 -15 -21 -22 -36 -15 -32 6 4 11 4 11 -1 0 -14
-14 -29 -35 -38 -18 -8 -18 -9 8 -13 29 -4 32 -9 18 -30 -6 -11 -23 -3 -70 35
-34 26 -84 64 -111 83 -27 19 -88 64 -137 99 -91 66 -122 83 -109 63 5 -8 0
-12 -13 -12 -11 0 -22 -4 -25 -9 -3 -4 6 -6 19 -3 31 6 33 -6 3 -18 l-23 -9
23 -7 c12 -3 22 -9 22 -13 0 -3 14 -12 31 -20 23 -10 28 -16 18 -22 -11 -7
-12 -12 -2 -28 7 -11 10 -27 7 -34 -8 -21 43 -57 78 -57 22 0 29 -4 25 -14 -6
-16 12 -26 47 -26 12 0 27 -5 32 -10 6 -6 37 -12 69 -14 33 -1 61 -8 63 -14 2
-6 10 -8 18 -5 8 3 14 0 14 -5 0 -6 8 -13 18 -16 10 -4 32 -24 48 -47 16 -22
37 -49 48 -59 22 -22 16 -59 -15 -98 -10 -14 -19 -29 -19 -34 0 -5 -11 -24
-25 -42 -13 -18 -26 -43 -27 -57 -2 -13 -12 -29 -23 -34 -11 -6 -21 -21 -23
-33 -2 -12 -8 -23 -13 -23 -13 -2 -29 -6 -31 -9 -2 -1 -29 -3 -61 -4 -56 -2
-58 -2 -52 21 4 16 1 23 -9 23 -8 0 -17 -10 -19 -22 l-4 -23 -2 23 c0 14 -7
22 -18 22 -39 0 -123 25 -123 37 0 8 -13 13 -34 13 -18 0 -39 7 -46 15 -7 8
-16 12 -21 9 -5 -3 -9 0 -9 5 0 6 -5 11 -10 11 -10 0 -68 40 -107 75 -13 11
-23 27 -23 37 0 10 -3 18 -7 18 -11 0 -120 100 -110 100 4 0 -3 11 -17 25 -14
14 -30 25 -36 25 -6 0 -8 4 -5 10 3 6 -1 7 -9 4 -9 -3 -16 -1 -16 4 0 6 -9 14
-20 17 -11 3 -20 13 -20 21 0 17 -17 19 -23 2 -4 -10 -7 -10 -18 0 -11 10 -11
12 0 12 11 0 11 3 1 15 -13 16 -55 21 -45 6 3 -5 0 -13 -6 -17 -8 -4 -9 -3 -5
4 4 7 2 12 -3 12 -6 0 -11 9 -11 19 0 11 -14 31 -31 45 -17 14 -26 26 -20 26
6 0 11 7 11 15 0 8 -6 15 -14 15 -8 0 -16 5 -18 11 -2 7 -18 13 -36 14 l-32 3
2 -84 c1 -46 6 -84 11 -84 5 0 15 -7 23 -15 10 -9 35 -15 67 -15 50 0 55 -3
137 -72 47 -40 132 -120 190 -179 58 -58 126 -120 153 -139 26 -18 47 -37 47
-42 0 -14 -82 -48 -116 -48 -20 0 -41 9 -58 25 -31 29 -51 33 -42 8 4 -10 -3
-36 -15 -60 l-22 -43 -143 0 c-172 0 -164 6 -164 -139 l0 -101 353 2 352 3 1
45 c1 25 2 73 3 108 1 60 2 63 22 57 12 -4 31 -3 43 3 43 20 104 34 116 27 7
-4 16 -2 20 4 4 7 26 15 48 18 23 3 39 9 37 13 -3 4 9 10 25 12 17 3 30 1 30
-4 0 -5 10 -2 22 6 12 9 30 16 38 16 9 0 26 9 38 20 12 11 29 20 39 20 10 0
31 7 47 15 15 8 38 15 50 15 12 0 31 6 41 14 16 12 21 11 37 -8 19 -24 24 -15
7 15 -8 15 -7 24 3 36 12 15 11 15 -9 4 -13 -6 -34 -9 -49 -5 -23 6 -17 10 47
31 66 21 94 24 259 26 194 2 243 -6 255 -42 3 -10 30 -42 61 -72 95 -92 102
-101 109 -137 4 -23 22 -50 56 -82 56 -54 74 -105 45 -129 -31 -26 -15 -31 89
-31 83 0 122 5 192 26 78 23 100 25 188 20 61 -3 124 -14 159 -26 33 -11 66
-20 75 -20 22 1 -43 34 -107 55 -28 10 -52 21 -52 26 0 5 -24 22 -52 38 -152
86 -197 141 -115 141 24 0 28 3 17 10 -8 5 -44 10 -80 10 -36 0 -72 -5 -80
-10 -8 -5 -10 -10 -5 -10 6 -1 -5 -7 -24 -15 -62 -28 -185 -25 -215 5 -18 18
10 28 60 22 31 -3 58 2 93 17 27 11 59 21 70 21 11 0 23 4 26 10 4 6 -16 8
-55 3 -43 -4 -68 -2 -87 8 -20 11 -27 11 -30 2 -4 -10 -9 -9 -20 3 -11 11 -18
12 -23 4 -9 -14 -47 -5 -79 19 -23 18 -22 18 63 15 61 -3 96 0 119 11 31 14
30 15 -53 13 -47 0 -89 1 -95 2 -5 1 -14 3 -20 4 -29 4 -55 19 -55 31 0 14 18
19 111 29 25 3 59 11 75 18 26 12 16 13 -96 16 -84 2 -127 7 -132 15 -5 8 -8
7 -8 -5 0 -27 -19 -21 -26 8 -9 37 -49 75 -64 60 -8 -8 -14 -6 -22 8 -6 11
-22 30 -35 42 -15 14 -22 28 -17 35 4 7 3 9 -4 6 -13 -9 -68 64 -83 111 -8 25
-14 31 -20 21 -6 -10 -10 -9 -15 6 -4 11 -11 23 -16 26 -5 3 -11 19 -13 35 -7
42 -9 51 -30 128 -16 59 -23 70 -49 82 -22 9 -25 13 -12 14 22 0 14 13 -11 16
-18 3 -43 -18 -43 -36 0 -7 7 -9 16 -6 21 8 47 -7 69 -40 9 -14 12 -23 6 -20
-7 4 -11 -1 -11 -13 0 -11 -4 -22 -10 -26 -5 -3 -7 -12 -4 -19 3 -7 -9 -28
-26 -45 -16 -18 -30 -39 -30 -47 0 -8 -4 -14 -10 -14 -5 0 -10 -6 -10 -14 0
-7 -7 -19 -15 -26 -8 -7 -13 -16 -10 -20 3 -5 -8 -19 -25 -33 -22 -19 -28 -31
-24 -51 3 -18 -1 -28 -11 -32 -16 -7 -16 -34 0 -47 6 -4 -28 -6 -75 -3 -55 3
-74 2 -55 -3 17 -5 48 -9 70 -10 30 -1 36 -4 25 -11 -8 -5 -26 -10 -40 -10
-20 0 -22 -2 -10 -10 18 -12 69 -3 91 17 19 16 52 11 116 -18 24 -10 51 -19
60 -19 10 0 25 -4 32 -9 12 -8 10 -11 -10 -15 -39 -8 -111 -16 -154 -16 -22 0
-71 -9 -110 -20 -84 -24 -102 -25 -122 -5 -12 12 -13 19 -3 30 7 8 19 15 26
15 20 0 17 18 -3 23 -13 3 -11 5 6 6 24 1 24 1 5 16 -18 14 -18 14 6 15 l25 1
-24 10 c-21 8 -23 13 -17 57 l7 47 -20 -30 c-26 -38 -27 -26 -1 25 11 21 17
41 12 43 -8 5 -62 20 -75 21 -4 1 -11 6 -15 11 -14 21 -71 55 -91 55 -29 0
-36 24 -21 73 12 41 13 42 23 17 10 -23 11 -19 18 35 4 33 12 93 19 134 6 40
9 75 7 77 -2 2 -19 -24 -37 -58z m-392 -127 c3 -8 -1 -12 -9 -9 -7 2 -15 10
-17 17 -3 8 1 12 9 9 7 -2 15 -10 17 -17z m-706 -113 c-7 -7 -12 -8 -12 -2 0
14 12 26 19 19 2 -3 -1 -11 -7 -17z m1679 -88 c28 -15 24 -24 -17 -36 -30 -10
-34 -9 -30 3 3 8 6 21 6 29 0 17 14 18 41 4z m-1529 -632 c37 -18 34 -72 -5
-96 -19 -12 -30 -14 -35 -6 -4 6 -14 13 -22 16 -8 2 -15 18 -16 37 -1 25 3 35
17 38 10 3 19 9 19 14 0 12 11 11 42 -3z m119 -20 c1 -7 1 -19 0 -25 -1 -7 3
-13 9 -13 5 0 10 11 10 25 0 20 5 25 25 25 23 0 25 -4 25 -40 0 -36 -2 -40
-25 -40 -14 0 -25 5 -25 11 0 8 -4 8 -13 1 -14 -12 -57 -5 -57 10 0 14 31 58
41 58 5 0 10 -6 10 -12z m129 2 c0 -5 15 -10 34 -10 21 0 36 -6 40 -15 8 -23
-4 -45 -26 -45 -10 0 -16 -4 -13 -10 3 -5 -1 -10 -9 -10 -10 0 -16 9 -16 23 0
16 -3 18 -9 9 -22 -36 -63 11 -47 54 6 16 46 19 46 4z m175 -30 c4 0 14 8 21
17 7 10 16 14 20 10 4 -4 -4 -20 -19 -34 l-26 -27 -25 23 c-28 26 -24 52 3 27
10 -9 21 -16 26 -16z"/>
<path d="M195 110 c-8 -13 4 -32 16 -25 12 8 12 35 0 35 -6 0 -13 -4 -16 -10z"/>
<path d="M391 84 c0 -11 3 -14 6 -6 3 7 2 16 -1 19 -3 4 -6 -2 -5 -13z"/>
<path d="M450 100 c0 -11 5 -20 10 -20 6 0 10 9 10 20 0 11 -4 20 -10 20 -5 0
-10 -9 -10 -20z"/>
<path d="M520 84 c0 -8 5 -12 10 -9 6 3 10 10 10 16 0 5 -4 9 -10 9 -5 0 -10
-7 -10 -16z"/>
<path d="M1646 1155 c4 -8 12 -15 20 -15 8 0 11 6 8 15 -4 8 -12 15 -20 15 -8
0 -11 -6 -8 -15z"/>
<path d="M3881 1054 c0 -11 3 -14 6 -6 3 7 2 16 -1 19 -3 4 -6 -2 -5 -13z"/>
<path d="M4172 1040 c0 -14 2 -19 5 -12 2 6 2 18 0 25 -3 6 -5 1 -5 -13z"/>
<path d="M675 1007 c23 -19 45 -22 45 -7 0 6 -6 10 -14 10 -8 0 -23 3 -33 6
-16 6 -16 5 2 -9z"/>
<path d="M3640 1010 c0 -5 5 -10 11 -10 5 0 7 5 4 10 -3 6 -8 10 -11 10 -2 0
-4 -4 -4 -10z"/>
<path d="M3690 979 c0 -5 5 -7 10 -4 6 3 10 8 10 11 0 2 -4 4 -10 4 -5 0 -10
-5 -10 -11z"/>
<path d="M4220 979 c0 -5 5 -7 10 -4 6 3 10 8 10 11 0 2 -4 4 -10 4 -5 0 -10
-5 -10 -11z"/>
<path d="M3470 955 c-17 -21 -7 -29 25 -21 22 6 25 9 15 21 -16 19 -24 19 -40
0z"/>
<path d="M3686 951 c-4 -7 -5 -15 -2 -18 9 -9 19 4 14 18 -4 11 -6 11 -12 0z"/>
<path d="M4048 945 c-7 -7 3 -55 11 -55 4 0 8 14 9 30 2 27 -7 38 -20 25z"/>
<path d="M4140 914 c0 -8 5 -12 10 -9 6 4 8 11 5 16 -9 14 -15 11 -15 -7z"/>
<path d="M4115 900 c-9 -15 -5 -19 35 -26 26 -6 32 -4 28 7 -3 8 -11 13 -18
11 -7 -1 -18 2 -25 8 -10 8 -15 8 -20 0z"/>
<path d="M2292 775 c-1 -11 7 -31 18 -45 11 -14 20 -20 20 -14 0 6 -6 17 -14
24 -8 6 -17 21 -19 33 -4 20 -4 20 -5 2z"/>
<path d="M2380 772 c0 -5 6 -14 13 -19 15 -13 156 -47 163 -41 5 5 -6 10 -96
40 -25 8 -53 19 -62 23 -10 4 -18 3 -18 -3z"/>
<path d="M3476 733 c4 -21 15 -58 26 -83 19 -46 19 -40 -2 63 -13 63 -35 81
-24 20z"/>
<path d="M1440 741 c0 -5 -3 -17 -6 -25 -5 -12 -2 -15 9 -10 9 3 13 12 10 20
-6 16 12 19 22 4 3 -5 12 -10 18 -10 16 1 -23 30 -40 30 -7 0 -13 -4 -13 -9z"/>
<path d="M2340 701 c0 -6 18 -20 39 -31 22 -11 44 -27 49 -35 7 -13 14 -14 35
-6 30 12 37 33 10 30 -16 -2 -68 17 -115 42 -12 6 -18 6 -18 0z"/>
<path d="M4510 600 c0 -25 12 -36 67 -64 60 -32 70 -45 108 -146 16 -42 41
-87 57 -102 17 -16 28 -36 28 -53 0 -14 4 -24 9 -21 5 3 14 -1 21 -9 11 -13
10 -14 -4 -9 -9 3 -16 2 -16 -4 0 -20 26 -29 74 -26 40 3 54 -1 79 -22 l31
-26 -49 6 c-26 4 -57 12 -68 18 -21 11 -21 2 -2 -44 5 -13 2 -18 -11 -18 -11
0 -30 -3 -43 -7 -22 -5 -23 -4 -18 19 5 19 2 28 -10 32 -14 6 -15 9 -4 15 10
6 8 10 -6 16 -10 5 -20 9 -23 9 -3 1 -11 5 -17 9 -19 12 -16 -3 7 -41 35 -56
29 -64 -45 -60 l-65 3 0 -37 c0 -35 2 -38 29 -38 16 0 34 7 41 15 16 19 30 19
30 0 0 -19 14 -19 30 0 16 19 30 19 30 1 0 -17 48 -16 55 2 2 6 15 11 27 11
17 -1 18 -2 6 -6 -25 -6 -23 -23 2 -23 11 0 23 7 26 15 8 19 43 19 50 0 4 -9
19 -15 35 -15 l29 0 0 90 c0 82 -8 107 -25 79 -5 -7 -13 -5 -25 6 -11 10 -40
18 -65 20 -58 4 -62 8 -29 30 19 12 29 14 37 6 6 -6 20 -11 32 -11 17 0 18 -2
5 -11 -12 -8 -10 -9 10 -5 14 3 33 6 43 6 12 0 17 8 17 26 0 25 -2 26 -36 19
-20 -3 -48 -2 -63 4 -14 5 -43 12 -65 16 -35 6 -37 7 -20 20 21 16 54 20 54 7
0 -12 61 -30 95 -29 l30 2 2 120 3 120 -49 23 c-70 32 -140 52 -188 52 -23 0
-54 5 -70 11 -15 7 -63 12 -105 13 -63 1 -78 -2 -78 -14z"/>
<path d="M1960 595 c7 -9 15 -13 17 -11 7 7 -7 26 -19 26 -6 0 -6 -6 2 -15z"/>
<path d="M2748 573 c25 -13 35 -14 44 -5 9 9 6 12 -14 12 -15 0 -35 2 -45 5
-10 3 -3 -2 15 -12z"/>
<path d="M3810 531 c0 -4 -11 -20 -25 -34 -16 -15 -22 -28 -15 -32 14 -9 25 0
49 40 16 28 17 35 6 35 -8 0 -15 -4 -15 -9z"/>
<path d="M300 460 c0 -5 -7 -10 -15 -10 -8 0 -15 -7 -15 -15 0 -18 -41 -20
-57 -4 -8 8 -17 8 -30 0 -14 -7 -23 -7 -31 1 -5 5 -15 9 -21 7 -7 -3 7 -18 29
-35 38 -29 44 -31 80 -22 22 6 40 14 40 19 0 5 8 9 18 9 11 0 27 9 38 21 16
17 16 22 4 29 -20 13 -40 12 -40 0z"/>
<path d="M1545 460 c-27 -7 -27 -8 -5 -8 14 0 36 4 50 8 20 6 21 8 5 8 -11 0
-33 -4 -50 -8z"/>
<path d="M3723 434 c-3 -11 -11 -22 -16 -25 -13 -9 47 -67 81 -80 21 -8 29 -6
45 10 19 19 19 19 -11 35 -22 11 -29 21 -25 34 3 13 -2 21 -14 24 -10 3 -26 9
-35 13 -13 5 -20 1 -25 -11z m37 -44 c0 8 2 11 5 8 3 -3 3 -13 -1 -22 -5 -13
-9 -14 -20 -5 -8 6 -14 16 -14 21 0 6 7 5 15 -2 12 -10 15 -10 15 0z"/>
<path d="M2380 415 c7 -8 20 -15 28 -15 13 0 12 3 -4 15 -25 19 -40 19 -24 0z"/>
<path d="M70 350 c0 -5 5 -10 11 -10 5 0 7 5 4 10 -3 6 -8 10 -11 10 -2 0 -4
-4 -4 -10z"/>
<path d="M245 340 c28 -12 47 -12 40 0 -3 6 -18 10 -33 9 -24 0 -25 -1 -7 -9z"/>
<path d="M4369 335 c37 -16 81 -21 66 -6 -6 5 -30 12 -55 15 l-45 7 34 -16z"/>
<path d="M2800 331 c0 -3 -18 -7 -39 -9 -22 -1 -59 -12 -83 -23 l-43 -20 46 6
c42 5 55 1 130 -40 46 -26 144 -75 216 -111 143 -70 173 -91 151 -105 -24 -16
34 -10 108 11 39 10 79 17 90 14 12 -3 36 1 55 9 l34 15 -32 1 c-17 1 -43 5
-57 10 -17 7 -26 7 -28 -1 -4 -12 -68 -1 -68 12 0 5 -15 12 -32 15 -18 4 -37
11 -43 15 -5 4 -35 13 -65 19 -30 7 -66 16 -80 21 -14 5 -37 11 -51 14 -37 8
-179 103 -179 120 0 8 8 16 18 18 10 3 4 6 -15 9 -18 3 -33 3 -33 0z"/>
<path d="M90 320 c0 -5 4 -10 9 -10 6 0 13 5 16 10 3 6 -1 10 -9 10 -9 0 -16
-4 -16 -10z"/>
<path d="M45 301 c-17 -10 -33 -16 -37 -14 -5 2 -8 -1 -8 -7 0 -7 7 -9 16 -6
9 3 27 9 40 12 13 3 24 12 24 20 0 17 2 17 -35 -5z"/>
<path d="M120 260 c0 -5 5 -10 11 -10 5 0 7 5 4 10 -3 6 -8 10 -11 10 -2 0 -4
-4 -4 -10z"/>
<path d="M238 253 c7 -3 16 -2 19 1 4 3 -2 6 -13 5 -11 0 -14 -3 -6 -6z"/>
<path d="M4032 195 c-7 -8 -9 -15 -4 -15 5 0 15 7 22 15 16 19 -1 19 -18 0z"/>
<path d="M3220 172 c0 -5 10 -12 23 -16 34 -9 97 -7 97 3 0 5 -18 9 -40 9 -22
1 -49 4 -60 7 -11 4 -20 2 -20 -3z"/>
<path d="M4088 173 c7 -3 16 -2 19 1 4 3 -2 6 -13 5 -11 0 -14 -3 -6 -6z"/>
<path d="M3478 73 c7 -3 16 -2 19 1 4 3 -2 6 -13 5 -11 0 -14 -3 -6 -6z"/>
<path d="M1577 35 c-20 -14 -37 -28 -37 -30 0 -12 31 -3 47 14 10 10 27 23 38
29 14 8 16 11 5 12 -9 0 -32 -11 -53 -25z"/>
<path d="M4900 10 c0 -5 5 -10 10 -10 6 0 10 5 10 10 0 6 -4 10 -10 10 -5 0
-10 -4 -10 -10z"/>
<path d="M3118 3 c6 -2 18 -2 25 0 6 3 1 5 -13 5 -14 0 -19 -2 -12 -5z"/>
</g>
</svg>
